# xmcd CD database file
#
# Track frame offsets:
#	215
#	15263
#	29005
#	47034
#	60839
#	70211
#	90027
#	102969
#	121197
#	135694
#	151046
#	169479
#	187137
#	201687
#
# Disc length: 2843 seconds
#
# Revision: 0
# Processed by: cddbd v1.5.2PL0 Copyright (c) Steve Scherf et al.
# Submitted via: CDex 1.70
#
DISCID=b70b190e
DTITLE=Taylor-Boy Armin - Only Fourteen
DYEAR=2016
DGENRE=Country
TTITLE0=Thanks Good For The Radio
TTITLE1=I Recall A Gypsy Woman
TTITLE2=Cowboy Rides Away
TTITLE3=Dallas
TTITLE4=Lousiana Saturday Nights
TTITLE5=Everythings That Glitters
TTITLE6=Little Yellow Blanket
TTITLE7=Sing Me Back Home
TTITLE8=Much Too Young
TTITLE9=You Ain't Goin' Nowhere
TTITLE10=16th Avenue
TTITLE11=Wagon Wheel
TTITLE12=Hole In The Wall
TTITLE13=Dance Upon A Time
EXTD=YEAR: 2016
EXTT0=
EXTT1=
EXTT2=
EXTT3=
EXTT4=
EXTT5=
EXTT6=
EXTT7=
EXTT8=
EXTT9=
EXTT10=
EXTT11=
EXTT12=
EXTT13=
PLAYORDER=
